<?xml version="1.0" encoding="UTF-8"?>
<svg id="Layer_1" data-name="Layer 1" xmlns="http://www.w3.org/2000/svg" viewBox="0 0 643.46 184.25">
  <g>
    <g>
      <path d="M374.44,99.87c-1.7-1.54-3.76-2.93-6.13-4.14-2.2-1.12-4.72-2.23-7.46-3.27-1.96-.77-3.72-1.48-5.26-2.14-1.31-.55-2.42-1.17-3.3-1.83-.71-.53-1.24-1.12-1.57-1.74-.31-.57-.46-1.37-.46-2.37,0-.69.14-1.3.45-1.85.33-.6.8-1.11,1.43-1.57.73-.52,1.64-.93,2.71-1.24,1.14-.33,2.48-.49,3.97-.49,5.15,0,9.55,1.25,13.46,3.81l5.13,3.36v-18.05l-1.98-.87c-4.52-1.98-9.67-2.98-15.31-2.98-3.22,0-6.38.41-9.41,1.23-3.1.84-5.92,2.11-8.38,3.78-2.54,1.74-4.61,3.93-6.15,6.51-1.59,2.68-2.4,5.77-2.4,9.18,0,2.72.43,5.17,1.26,7.27.85,2.14,2.13,4.07,3.79,5.73,1.58,1.58,3.54,3,5.83,4.22,2.1,1.13,4.58,2.26,7.39,3.37,1.89.74,3.66,1.44,5.31,2.12,1.43.59,2.68,1.26,3.71,1.97.87.61,1.57,1.3,2.06,2.06.37.57.55,1.31.55,2.28,0,1.54,0,5.15-9.38,5.15-5.63,0-10.65-1.69-15.36-5.17l-5.28-3.91v18.91l1.77.93c5,2.63,10.94,3.97,17.64,3.97,3.39,0,6.68-.39,9.78-1.15,3.22-.79,6.12-2.03,8.61-3.69,2.6-1.72,4.71-3.91,6.28-6.53,1.62-2.71,2.44-5.89,2.44-9.45,0-2.89-.51-5.46-1.5-7.66-.99-2.16-2.41-4.1-4.22-5.75Z" style="fill: #60269e; stroke-width: 0px;"/>
      <path d="M410.73,46.87l-16.26,5.25v13.79h-10.34v14.85h10.34v32.29c0,13.5,6.79,20.94,19.12,20.94,4.27,0,7.83-.77,10.59-2.29l1.71-.95v-16.83l-5.31,4c-1.19.9-2.59,1.33-4.29,1.33-2.1,0-3.52-.45-4.22-1.33-.5-.63-1.34-2.32-1.34-6.57v-30.58h15.16v-14.85h-15.16v-19.04Z" style="fill: #60269e; stroke-width: 0px;"/>
      <path d="M465,64.5c-10.29,0-18.62,3.21-24.76,9.52-6.12,6.29-9.22,15.03-9.22,25.99,0,10.11,2.98,18.4,8.86,24.63,5.93,6.28,13.91,9.47,23.71,9.47s18.19-3.27,24.24-9.71c6-6.38,9.04-14.91,9.04-25.33s-2.83-19.08-8.41-25.2c-5.66-6.22-13.55-9.37-23.45-9.37ZM476.11,114.51c-2.71,3.27-6.58,4.86-11.82,4.86s-9.14-1.65-12.15-5.05c-3.12-3.52-4.63-8.31-4.63-14.67s1.55-11.69,4.61-15.26c2.97-3.47,6.95-5.16,12.17-5.16s9.09,1.6,11.8,4.9c2.83,3.45,4.27,8.59,4.27,15.29s-1.43,11.69-4.26,15.09Z" style="fill: #60269e; stroke-width: 0px;"/>
      <path d="M539.09,64.5c-10.38,0-18.84,3.38-25.14,10.06-6.25,6.62-9.42,15.42-9.42,26.16,0,9.72,2.96,17.79,8.81,23.98,5.89,6.25,13.69,9.41,23.18,9.41,6.92,0,13.03-1.56,18.16-4.65l1.61-.96v-17.69l-5.31,4c-4.07,3.07-8.26,4.56-12.81,4.56-5.3,0-9.37-1.64-12.44-5.03-3.16-3.47-4.69-8.2-4.69-14.45s1.66-11.34,5.06-15.15c3.31-3.7,7.44-5.5,12.65-5.5,4.43,0,8.5,1.34,12.43,4.1l5.22,3.66v-18.32l-1.87-.91c-4.47-2.17-9.66-3.27-15.43-3.27Z" style="fill: #60269e; stroke-width: 0px;"/>
      <polygon points="595 98.24 626.08 65.91 604.21 65.91 583.49 88.51 583.49 37 567.22 37 567.22 132.69 583.49 132.69 583.49 108.73 605.5 132.69 628.28 132.69 595 98.24" style="fill: #60269e; stroke-width: 0px;"/>
      <path d="M235.56,64.5c-6.57,0-12.14,1.96-16.66,5.84v-4.43h-16.26v66.79h16.26v-37.62c0-4.74,1.28-8.51,3.92-11.54,2.51-2.89,5.61-4.3,9.45-4.3,4.97,0,10.67,1.8,10.67,15.84v37.62h16.26v-40.09c0-8.78-2.01-15.68-5.98-20.52-4.13-5.04-10.07-7.59-17.66-7.59Z" style="fill: #60269e; stroke-width: 0px;"/>
      <path d="M299.79,35.71c-6.34,0-11.71,2.18-15.98,6.47-4.27,4.29-6.43,10.1-6.43,17.29v6.44h-10.28v14.85h10.28v51.93h16.2v-51.93h14.1v-14.85h-14.1v-5.97c0-8.29,3.26-9.43,6.79-9.43,1.83,0,3.39.38,4.78,1.16l4.94,2.78v-16.59l-2.06-.84c-2.14-.88-4.84-1.3-8.24-1.3Z" style="fill: #60269e; stroke-width: 0px;"/>
    </g>
    <circle cx="314.8" cy="107.18" r="10.85" style="fill: #03dac6; stroke-width: 0px;"/>
  </g>
  <g>
    <path d="M151.52,52.82l-69.81,120.55h27.15c11.38,0,21.9-6.06,27.61-15.92l37.82-65.32-22.77-39.32Z" style="fill: #03dac6; stroke-width: 0px;"/>
    <path d="M151.52,52.81l-22.84-39.44h-44.85L14.3,133.44h27.15c11.38,0,21.9-6.06,27.61-15.92l37.47-64.71h44.99Z" style="fill: #60269e; stroke-width: 0px;"/>
  </g>
</svg>